<svg xmlns="http://www.w3.org/2000/svg" width="100%" height="100%" preserveAspectRatio="xMidYMid meet" viewBox="-5.347851779740221e-15 -5.347851779740221e-15 300 92.21023559570312" overflow="visible"><defs id="SvgjsDefs1456"></defs><g id="SvgjsG1457" transform="scale(1.5052865664212716)" opacity="1"><g id="SvgjsG1458" class="cWiGEqHJw" transform="translate(-3.552713678800501e-15, -3.552713678800501e-15) scale(0.612576)" light-content="false" non-strokable="false" fill="#ffffff"><rect width="100" height="100" rx="10"></rect></g><g id="SvgjsG1459" class="kWcOAtEj4z" transform="translate(-1.068471657635408, -2.2642322605609237) scale(0.8086271061219599)" light-content="true" non-strokable="false" fill="#4a4a4a"><path d="M25.879 53.758a3.502 3.502 0 0 0 4.946-.001 3.502 3.502 0 0 0 .001-4.946 3.5 3.5 0 0 0-4.945.002 3.5 3.5 0 0 0-.002 4.945zm1.416-3.531a1.498 1.498 0 0 1 2.116-.002 1.5 1.5 0 0 1-2.118 2.119 1.499 1.499 0 0 1 .002-2.117z"></path><path d="M57.374 34.837c3.225-3.618 3.26-9.026-.025-12.311-3.284-3.285-8.693-3.25-12.311-.025l-.55-.549a1.25 1.25 0 0 0-1.768 1.768l.53.53-2.048 2.048-.53-.53a1.25 1.25 0 0 0-1.768 1.768l.53.53-15.643 15.645-.006-.006-.019.018a8.69 8.69 0 0 0-2.354 4.325l-.003-.001-.043.2-.011.05-2.76 12.986 13.243-2.807-.005-.012a8.694 8.694 0 0 0 4.321-2.352l.018-.02-.009-.01L51.81 40.44l.53.53a1.25 1.25 0 1 0 1.769-1.768l-.53-.531 2.047-2.047.531.53a1.25 1.25 0 0 0 1.768-1.768l-.551-.549zM34.309 54.405c-.001.001.003.007.002.009a6.224 6.224 0 0 1-2.723 1.543l.002.001-.05.011a6.192 6.192 0 0 1-.557.118l-.218.047v-.001l-8.913 1.895.722-3.409 1.235-5.839c.011-.061.024-.121.038-.182l.066-.314.009.008a6.219 6.219 0 0 1 1.545-2.725h.003l2.018-2.018 8.839 8.838-2.018 2.018zm3.786-3.786l-8.839-8.838 11.947-11.948 8.839 8.839-11.947 11.947zM51.81 36.904l-8.839-8.839 2.048-2.048 8.839 8.839-2.048 2.048zm3.796-3.834l-8.801-8.802c2.635-2.258 6.463-2.287 8.775.025 2.314 2.314 2.284 6.143.026 8.777z"></path></g><g id="SvgjsG1460" class="text" transform="translate(137.85759847412112, 51.3588) scale(1)" light-content="false" fill="#ffffff"><path d="M-28.98 -42L-32.88 -42L-39.42 -4.86L-39.54 -4.86L-48.3 -42L-53.22 -42L-60.6 0L-56.76 0L-50.76 -34.26L-50.7 -34.26L-42.72 0L-36.36 0Z M-9.54 -21.48L-11.82 -8.82C-12.02 -7.62 -12.4 -6.66 -12.96 -5.94C-13.52 -5.22 -14.14 -4.67 -14.82 -4.29C-15.5 -3.91 -16.18 -3.65 -16.86 -3.51C-17.54 -3.37 -18.12 -3.3 -18.6 -3.3C-19.08 -3.3 -19.65 -3.37 -20.31 -3.51C-20.97 -3.65 -21.58 -3.91 -22.14 -4.29C-22.7 -4.67 -23.13 -5.22 -23.43 -5.94C-23.73 -6.66 -23.78 -7.62 -23.58 -8.82L-21.3 -21.48C-21.1 -22.68 -20.72 -23.63 -20.16 -24.33C-19.6 -25.03 -18.98 -25.57 -18.3 -25.95C-17.62 -26.33 -16.93 -26.58 -16.23 -26.7C-15.53 -26.82 -14.94 -26.88 -14.46 -26.88C-13.98 -26.88 -13.41 -26.82 -12.75 -26.7C-12.09 -26.58 -11.49 -26.33 -10.95 -25.95C-10.41 -25.57 -9.99 -25.03 -9.69 -24.33C-9.39 -23.63 -9.34 -22.68 -9.54 -21.48ZM-8.4 -8.4L-6 -21.9C-5.68 -23.78 -5.76 -25.29 -6.24 -26.43C-6.72 -27.57 -7.4 -28.45 -8.28 -29.07C-9.16 -29.69 -10.11 -30.1 -11.13 -30.3C-12.15 -30.5 -13.04 -30.6 -13.8 -30.6C-14.56 -30.6 -15.49 -30.5 -16.59 -30.3C-17.69 -30.1 -18.78 -29.69 -19.86 -29.07C-20.94 -28.45 -21.93 -27.57 -22.83 -26.43C-23.73 -25.29 -24.34 -23.78 -24.66 -21.9L-27.06 -8.4C-27.38 -6.52 -27.3 -5.01 -26.82 -3.87C-26.34 -2.73 -25.67 -1.84 -24.81 -1.2C-23.95 -0.56 -23 -0.14 -21.96 0.06C-20.92 0.26 -20.02 0.36 -19.26 0.36C-18.5 0.36 -17.57 0.26 -16.47 0.06C-15.37 -0.14 -14.28 -0.56 -13.2 -1.2C-12.12 -1.84 -11.13 -2.73 -10.23 -3.87C-9.33 -5.01 -8.72 -6.52 -8.4 -8.4Z M4.08 -26.34L0.84 -7.98C0.6 -6.54 0.57 -5.32 0.75 -4.32C0.93 -3.32 1.29 -2.49 1.83 -1.83C2.37 -1.17 3.05 -0.69 3.87 -0.39C4.69 -0.09 5.62 0.06 6.66 0.06L8.64 0.06L9.36 -3.9L7.68 -3.9C6.68 -3.9 5.87 -4.17 5.25 -4.71C4.63 -5.25 4.44 -6.24 4.68 -7.68L7.98 -26.34L13.32 -26.34L13.98 -30.06L8.64 -30.06L10.68 -41.7L6.78 -41.7L4.74 -30.06L-0.24 -30.06L-0.9 -26.34Z M26.16 -14.88L19.56 -14.94L20.88 -22.2C21.12 -23.6 21.83 -24.71 23.01 -25.53C24.19 -26.35 25.46 -26.76 26.82 -26.76C27.58 -26.76 28.3 -26.68 28.98 -26.52C29.66 -26.36 30.24 -26.1 30.72 -25.74C31.2 -25.38 31.56 -24.91 31.8 -24.33C32.04 -23.75 32.08 -23.04 31.92 -22.2L31.5 -19.74C31.38 -19.1 31.15 -18.49 30.81 -17.91C30.47 -17.33 30.06 -16.81 29.58 -16.35C29.1 -15.89 28.56 -15.53 27.96 -15.27C27.36 -15.01 26.76 -14.88 26.16 -14.88ZM16.92 -21.9L14.64 -9C14.4 -7.6 14.44 -6.32 14.76 -5.16C15.08 -4 15.6 -3 16.32 -2.16C17.04 -1.32 17.95 -0.66 19.05 -0.18C20.15 0.3 21.36 0.54 22.68 0.54C22.88 0.54 23.48 0.46 24.48 0.3C25.48 0.14 26.54 -0.04 27.66 -0.24C28.98 -0.48 30.42 -0.76 31.98 -1.08L31.68 -5.04C30.2 -4.68 28.86 -4.38 27.66 -4.14C26.62 -3.9 25.66 -3.69 24.78 -3.51C23.9 -3.33 23.42 -3.24 23.34 -3.24C21.94 -3.24 20.77 -3.68 19.83 -4.56C18.89 -5.44 18.4 -6.58 18.36 -7.98L18.9 -10.98C19.98 -10.86 21.08 -10.8 22.2 -10.8C23.76 -10.8 25.27 -10.96 26.73 -11.28C28.19 -11.6 29.51 -12.12 30.69 -12.84C31.87 -13.56 32.86 -14.5 33.66 -15.66C34.46 -16.82 35.02 -18.26 35.34 -19.98L35.7 -21.9C35.9 -23.14 35.87 -24.29 35.61 -25.35C35.35 -26.41 34.91 -27.33 34.29 -28.11C33.67 -28.89 32.89 -29.5 31.95 -29.94C31.01 -30.38 29.96 -30.6 28.8 -30.6L26.82 -30.6C25.66 -30.6 24.53 -30.37 23.43 -29.91C22.33 -29.45 21.33 -28.83 20.43 -28.05C19.53 -27.27 18.77 -26.35 18.15 -25.29C17.53 -24.23 17.12 -23.1 16.92 -21.9Z M57.24 0L57.9 -3.78L42.12 -3.78L42.18 -4.26L60.84 -26.28L61.44 -29.88L42.24 -29.88L41.58 -26.1L55.86 -26.1L55.74 -25.5L37.14 -3.6L36.54 0Z"></path></g></g></svg>