<svg xmlns="http://www.w3.org/2000/svg" width="100%" height="100%" preserveAspectRatio="xMidYMid meet" viewBox="0 0 159.498046875 147.00001525878906" overflow="visible"><defs id="SvgjsDefs1241"></defs><g id="SvgjsG1242" transform="scale(0.8965601366186874)" opacity="1"><g id="SvgjsG1243" class="2POvsxuxJ" transform="translate(35.580000000000005, 0) scale(0.3988789146690445)" light-content="false" non-strokable="false" fill="#ffffff"><circle cx="133.8" cy="133.8" r="133.8"></circle></g><g id="SvgjsG1244" class="text" transform="translate(88.94950030517579, 83.53900015258789) scale(1)" light-content="true" fill="#404040"><path d="M23.45 -59.36C22.8 -60.02 21.88 -60.34 20.69 -60.34C19.51 -60.34 18.59 -60.02 17.93 -59.36C17.28 -58.71 16.95 -57.79 16.95 -56.6L16.95 -14.42L-16.95 -58.12C-17.61 -58.89 -18.22 -59.45 -18.78 -59.81C-19.34 -60.16 -19.98 -60.34 -20.69 -60.34C-21.88 -60.34 -22.8 -60.02 -23.45 -59.36C-24.1 -58.71 -24.43 -57.79 -24.43 -56.6L-24.43 -3.74C-24.43 -2.55 -24.1 -1.63 -23.45 -0.98C-22.8 -0.33 -21.88 0 -20.69 0C-19.51 0 -18.59 -0.33 -17.93 -0.98C-17.28 -1.63 -16.95 -2.55 -16.95 -3.74L-16.95 -45.92L16.95 -2.22C17.55 -1.45 18.14 -0.89 18.73 -0.53C19.33 -0.18 19.98 0 20.69 0C21.88 0 22.8 -0.33 23.45 -0.98C24.1 -1.63 24.43 -2.55 24.43 -3.74L24.43 -56.6C24.43 -57.79 24.1 -58.71 23.45 -59.36Z"></path></g><g id="SvgjsG1245" class="text" transform="translate(87.83999633789062, 163.35999893188477) scale(1)" light-content="false" fill="#ffffff"><path d="M-70.68 -17.4L-71.16 0L-63.12 0L-63.48 -12.24L-63.3 -20.22C-63.22 -22.82 -63.98 -24.81 -65.58 -26.19C-67.18 -27.57 -69.5 -28.26 -72.54 -28.26C-75.14 -27.38 -77.54 -25.94 -79.74 -23.94L-80.16 -23.94L-80.16 -28.02L-87.72 -27.36L-87.42 -11.52L-87.84 0L-79.86 0L-80.22 -12.3L-80.22 -19.26C-78.18 -20.98 -76.26 -21.84 -74.46 -21.84C-73.22 -21.84 -72.27 -21.45 -71.61 -20.67C-70.95 -19.89 -70.64 -18.8 -70.68 -17.4Z M-23.16 -24.84C-25.32 -27.24 -28.44 -28.44 -32.52 -28.44C-36.88 -28.44 -40.22 -27.15 -42.54 -24.57C-44.86 -21.99 -46.02 -18.26 -46.02 -13.38C-46.02 -8.86 -44.94 -5.4 -42.78 -3C-40.62 -0.6 -37.5 0.6 -33.42 0.6C-29.06 0.6 -25.72 -0.69 -23.4 -3.27C-21.08 -5.85 -19.92 -9.58 -19.92 -14.46C-19.92 -18.98 -21 -22.44 -23.16 -24.84ZM-37.23 -21.12C-36.37 -22.4 -34.98 -23.04 -33.06 -23.04C-31.1 -23.04 -29.67 -22.25 -28.77 -20.67C-27.87 -19.09 -27.42 -16.48 -27.42 -12.84C-27.42 -9.96 -27.85 -7.89 -28.71 -6.63C-29.57 -5.37 -30.96 -4.74 -32.88 -4.74C-34.88 -4.74 -36.32 -5.52 -37.2 -7.08C-38.08 -8.64 -38.52 -11.26 -38.52 -14.94C-38.52 -17.78 -38.09 -19.84 -37.23 -21.12Z M12.84 -6.9C11.44 -6.22 10.1 -5.88 8.82 -5.88C7.7 -5.88 6.9 -6.15 6.42 -6.69C5.94 -7.23 5.7 -8.14 5.7 -9.42L6.06 -22.86L13.2 -22.86L13.56 -27.24L13.32 -27.66L6.18 -27.66L6.36 -34.14L5.82 -34.62L-1.44 -32.28L-1.44 -27.66L-4.98 -27.66L-5.4 -23.28L-5.1 -22.86L-1.38 -22.86L-1.32 -12.54L-1.62 -7.56C-1.62 -2.84 1.08 -0.2 6.48 0.36C8.6 0.12 10.68 -0.52 12.72 -1.56L13.5 -6.3Z M51 -12.96L51.9 -13.92C52.1 -15.32 52.2 -16.48 52.2 -17.4C52.2 -20.88 51.23 -23.59 49.29 -25.53C47.35 -27.47 44.6 -28.44 41.04 -28.44C36.88 -28.44 33.58 -27.13 31.14 -24.51C28.7 -21.89 27.48 -18.34 27.48 -13.86C27.48 -9.34 28.73 -5.8 31.23 -3.24C33.73 -0.68 37.18 0.6 41.58 0.6C44.26 0.6 47.12 0.04 50.16 -1.08L51.36 -7.02L50.7 -7.44C47.66 -6.04 44.9 -5.34 42.42 -5.34C37.7 -5.34 35.16 -7.84 34.8 -12.84ZM45.24 -18.3L45.12 -17.46L34.98 -17.22C35.34 -19.14 36.04 -20.61 37.08 -21.63C38.12 -22.65 39.42 -23.16 40.98 -23.16C42.38 -23.16 43.44 -22.75 44.16 -21.93C44.88 -21.11 45.24 -19.9 45.24 -18.3Z M74.34 -27.9L68.4 -28.02L67.8 -22.86L68.28 -22.32L73.26 -22.74L81.3 -22.74L67.68 -4.5L67.68 0.18L71.52 0L82.56 0L89.52 0.12L90.06 -5.04L89.64 -5.58L84.54 -5.1L76.08 -5.1L89.58 -23.22L89.52 -27.96L86.46 -27.9Z"></path></g></g></svg>